<svg height="480pt" viewBox="0 -56 480 480" width="480pt" xmlns="http://www.w3.org/2000/svg"><path d="m336 261.808594c-17.570312-20.015625-45.703125-27.046875-70.621094-17.648438-24.917968 9.398438-41.402344 33.257813-41.378906 59.886719-.003906 2.675781.160156 5.347656.480469 8 .703125 5.496094 2.128906 10.878906 4.238281 16 9.464844 23.710937 32.117188 39.527344 57.632812 40.246094 25.519532.722656 49.023438-13.792969 59.8125-36.929688 10.789063-23.136719 6.792969-50.472656-10.164062-69.554687zm-48 90.238281c-20.96875-.019531-39.511719-13.609375-45.839844-33.597656v-.082031c-1.449218-4.632813-2.179687-9.464844-2.160156-14.320313 0-26.507813 21.492188-48 48-48s48 21.492187 48 48c0 26.511719-21.492188 48-48 48zm0 0"/><path d="m288 256.046875c-26.507812 0-48 21.492187-48 48-.019531 4.855469.710938 9.6875 2.160156 14.320313v.082031c7.386719 23.484375 31.339844 37.574219 55.457032 32.613281 24.113281-4.957031 40.566406-27.355469 38.089843-51.847656-2.480469-24.492188-23.089843-43.140625-47.707031-43.167969zm0 80c-17.671875 0-32-14.324219-32-32 0-17.671875 14.328125-32 32-32s32 14.328125 32 32c0 17.675781-14.328125 32-32 32zm0 0" fill="#f9c60b"/><path d="m288 272.046875c-17.671875 0-32 14.328125-32 32 0 17.675781 14.328125 32 32 32s32-14.324219 32-32c0-17.671875-14.328125-32-32-32zm0 48c-8.835938 0-16-7.164063-16-16s7.164062-16 16-16 16 7.164063 16 16c-.027344 8.828125-7.175781 15.972656-16 16zm0 0" fill="#ad7214"/><path d="m304 304.046875c0 8.835937-7.164062 16-16 16s-16-7.164063-16-16 7.164062-16 16-16 16 7.164063 16 16zm0 0"/><path d="m143.28125 312.046875c-3.882812-23.085937-23.871094-39.992187-47.28125-39.992187s-43.398438 16.90625-47.28125 39.992187c-.957031 5.292969-.957031 10.710937 0 16 3.882812 23.085937 23.871094 39.992187 47.28125 39.992187s43.398438-16.90625 47.28125-39.992187c.957031-5.289063.957031-10.707031 0-16zm-47.28125 40c-17.671875 0-32-14.324219-32-32 0-17.671875 14.328125-32 32-32s32 14.328125 32 32c0 17.675781-14.328125 32-32 32zm0 0"/><path d="m96 288.046875c-17.671875 0-32 14.328125-32 32 0 17.675781 14.328125 32 32 32s32-14.324219 32-32c0-17.671875-14.328125-32-32-32zm0 48c-8.835938 0-16-7.164063-16-16s7.164062-16 16-16 16 7.164063 16 16c-.027344 8.828125-7.175781 15.972656-16 16zm0 0" fill="#f9c60b"/><path d="m112 320.046875c0 8.835937-7.164062 16-16 16s-16-7.164063-16-16 7.164062-16 16-16 16 7.164063 16 16zm0 0"/><path d="m480 320.046875c0 4.417969-3.582031 8-8 8h-96c-4.417969 0-8-3.582031-8-8v-312c0-4.417969 3.582031-8 8-8s8 3.582031 8 8v304h88c4.417969 0 8 3.582031 8 8zm0 0"/><path d="m143.28125 328.046875c.957031-5.289063.957031-10.707031 0-16h81.199219c.703125 5.496094 2.128906 10.878906 4.238281 16zm0 0" fill="#ad7214"/><path d="m48 320.046875c-.003906 2.683594.234375 5.363281.71875 8h-16.71875c-17.582031-.21875-31.78125-14.417969-32-32h16c.195312 8.753906 7.246094 15.804687 16 16h16.71875c-.484375 2.640625-.722656 5.316406-.71875 8zm0 0" fill="#ad7214"/><path d="m351.359375 212.929688c-1.25-2.957032-4.148437-4.878907-7.359375-4.882813h-12.160156l-67.199219-156.878906c-7.199219-19.921875-36.320313-35.121094-56.640625-35.121094h-88c-8.6875-.710937-17.246094 2.429687-23.410156 8.59375-6.160156 6.160156-9.304688 14.722656-8.589844 23.40625v160h-16v-160c-.589844-12.902344 4.277344-25.457031 13.410156-34.585937 9.132813-9.132813 21.6875-14.003907 34.589844-13.414063h88c26.160156 0 61.921875 18.640625 71.519531 45.28125zm0 0"/><path d="m72 152.046875v56h-72v-8c0-29.199219 15.679688-48 40-48zm0 0" fill="#faab1c"/><path d="m176 200.046875v8h-88v-104h8c12.976562.652344 23.347656 11.027344 24 24v40c.667969 4.109375 3.890625 7.332031 8 8h24c12.976562.652344 23.347656 11.027344 24 24zm0 0" fill="#4d4d4d"/><path d="m352 216.046875v88c0-35.34375-28.652344-64-64-64s-64 28.65625-64 64c-.003906 2.675781.160156 5.347656.480469 8h-81.199219c-3.882812-23.085937-23.871094-39.992187-47.28125-39.992187s-43.398438 16.90625-47.28125 39.992187h-16.71875c-8.753906-.195313-15.804688-7.246094-16-16h-16v-88h176v48h28.71875l45.601562-45.679687c1.523438-1.472657 3.558594-2.304688 5.679688-2.320313h88c4.417969 0 8 3.582031 8 8zm0 0" fill="#f9c60b"/><path d="m323.359375 208.046875h-22.71875s-59.761719-60.078125-60.160156-61.117187l-10.800781 10.796874c-3.15625 3.09375-8.203126 3.09375-11.359376 0-3.121093-3.144531-3.121093-8.214843 0-11.359374l32-32c3.136719-3.136719 8.222657-3.136719 11.359376 0 3.136718 3.136718 3.136718 8.222656 0 11.359374l-10.800782 10.800782c1.042969.402344 72.480469 71.519531 72.480469 71.519531zm0 0"/><g fill="#a67c52"><path d="m408 216.046875h64c4.417969 0 8 3.582031 8 8v64c0 4.417969-3.582031 8-8 8h-64c-4.417969 0-8-3.582031-8-8v-64c0-4.417969 3.582031-8 8-8zm0 0"/><path d="m408 24.046875h64c4.417969 0 8 3.582031 8 8v64c0 4.417969-3.582031 8-8 8h-64c-4.417969 0-8-3.582031-8-8v-64c0-4.417969 3.582031-8 8-8zm0 0"/><path d="m408 120.046875h64c4.417969 0 8 3.582031 8 8v64c0 4.417969-3.582031 8-8 8h-64c-4.417969 0-8-3.582031-8-8v-64c0-4.417969 3.582031-8 8-8zm0 0"/></g></svg>